<svg width="17" height="17" viewBox="0 0 17 17" fill="none" xmlns="http://www.w3.org/2000/svg">
<path opacity="0.6" fill-rule="evenodd" clip-rule="evenodd" d="M6.66667 0C6.00363 0 5.36774 0.263392 4.8989 0.732233C4.43006 1.20107 4.16667 1.83696 4.16667 2.5V3.33333H2.5C1.83696 3.33333 1.20107 3.59673 0.732233 4.06557C0.263392 4.53441 0 5.17029 0 5.83333V7.81833L1.20583 8.42083L1.21 8.42333L1.2325 8.43417L1.3325 8.48083C1.42306 8.52361 1.55806 8.5825 1.7375 8.6575C2.095 8.805 2.6175 9.00417 3.26583 9.20333C4.5675 9.60333 6.35833 10 8.33333 10C10.31 10 12.1 9.60417 13.4 9.20333C14.05 9.00333 14.5717 8.805 14.9292 8.6575C15.0992 8.58705 15.2676 8.51258 15.4342 8.43417L15.4567 8.42333L15.4608 8.42167L16.6667 7.8175V5.83333C16.6667 5.17029 16.4033 4.53441 15.9344 4.06557C15.4656 3.59673 14.8297 3.33333 14.1667 3.33333H12.5V2.5C12.5 1.83696 12.2366 1.20107 11.7678 0.732233C11.2989 0.263392 10.663 0 10 0H6.66667ZM10.8333 3.33333V2.5C10.8333 2.27899 10.7455 2.06702 10.5893 1.91074C10.433 1.75446 10.221 1.66667 10 1.66667H6.66667C6.44565 1.66667 6.23369 1.75446 6.07741 1.91074C5.92113 2.06702 5.83333 2.27899 5.83333 2.5V3.33333H10.8333ZM16.2058 9.91167L16.6667 9.68167V14.1667C16.6667 14.8297 16.4033 15.4656 15.9344 15.9344C15.4656 16.4033 14.8297 16.6667 14.1667 16.6667H2.5C1.83696 16.6667 1.20107 16.4033 0.732233 15.9344C0.263392 15.4656 0 14.8297 0 14.1667V9.68167L0.460833 9.91167L0.4625 9.91333L0.465833 9.915L0.476667 9.92L0.510833 9.93667L0.636667 9.995C0.745 10.045 0.901667 10.115 1.10083 10.1967C1.49917 10.3617 2.07 10.58 2.77583 10.7967C4.1825 11.23 6.14167 11.6667 8.33333 11.6667C10.5233 11.6667 12.4833 11.2292 13.8917 10.7967C14.459 10.6227 15.0179 10.4225 15.5667 10.1967C15.7651 10.1148 15.9616 10.0281 16.1558 9.93667L16.19 9.92L16.2008 9.915L16.2042 9.91333L16.2058 9.91167ZM8.33333 6.66667C8.11232 6.66667 7.90036 6.75446 7.74408 6.91074C7.5878 7.06702 7.5 7.27899 7.5 7.5C7.5 7.72101 7.5878 7.93297 7.74408 8.08926C7.90036 8.24554 8.11232 8.33333 8.33333 8.33333H8.34167C8.56268 8.33333 8.77464 8.24554 8.93092 8.08926C9.0872 7.93297 9.175 7.72101 9.175 7.5C9.175 7.27899 9.0872 7.06702 8.93092 6.91074C8.77464 6.75446 8.56268 6.66667 8.34167 6.66667H8.33333Z" fill="#2F78EE"/>
</svg>
