<svg width="16" height="16" viewBox="0 0 16 16" fill="none" xmlns="http://www.w3.org/2000/svg">
<path fill-rule="evenodd" clip-rule="evenodd" d="M2.16668 1.95898C2.05162 1.95898 1.95834 2.05226 1.95834 2.16732V5.50065C1.95834 5.61571 2.05162 5.70898 2.16668 5.70898H5.50001C5.61507 5.70898 5.70834 5.61571 5.70834 5.50065V2.16732C5.70834 2.05226 5.61507 1.95898 5.50001 1.95898H2.16668ZM0.708344 2.16732C0.708344 1.3619 1.36126 0.708984 2.16668 0.708984H5.50001C6.30543 0.708984 6.95834 1.3619 6.95834 2.16732V5.50065C6.95834 6.30607 6.30543 6.95898 5.50001 6.95898H2.16668C1.36126 6.95898 0.708344 6.30607 0.708344 5.50065V2.16732Z" fill="#0CAF60"/>
<path fill-rule="evenodd" clip-rule="evenodd" d="M10.5 1.95898C10.385 1.95898 10.2917 2.05226 10.2917 2.16732V5.50065C10.2917 5.61571 10.385 5.70898 10.5 5.70898H13.8333C13.9484 5.70898 14.0417 5.61571 14.0417 5.50065V2.16732C14.0417 2.05226 13.9484 1.95898 13.8333 1.95898H10.5ZM9.04168 2.16732C9.04168 1.3619 9.69459 0.708984 10.5 0.708984H13.8333C14.6388 0.708984 15.2917 1.3619 15.2917 2.16732V5.50065C15.2917 6.30607 14.6388 6.95898 13.8333 6.95898H10.5C9.69459 6.95898 9.04168 6.30607 9.04168 5.50065V2.16732Z" fill="#0CAF60"/>
<path fill-rule="evenodd" clip-rule="evenodd" d="M2.16668 10.2923C2.05162 10.2923 1.95834 10.3856 1.95834 10.5007V13.834C1.95834 13.949 2.05162 14.0423 2.16668 14.0423H5.50001C5.61507 14.0423 5.70834 13.949 5.70834 13.834V10.5007C5.70834 10.3856 5.61507 10.2923 5.50001 10.2923H2.16668ZM0.708344 10.5007C0.708344 9.69524 1.36126 9.04232 2.16668 9.04232H5.50001C6.30543 9.04232 6.95834 9.69524 6.95834 10.5007V13.834C6.95834 14.6394 6.30543 15.2923 5.50001 15.2923H2.16668C1.36126 15.2923 0.708344 14.6394 0.708344 13.834V10.5007Z" fill="#0CAF60"/>
<path fill-rule="evenodd" clip-rule="evenodd" d="M10.5 10.2923C10.385 10.2923 10.2917 10.3856 10.2917 10.5007V13.834C10.2917 13.949 10.385 14.0423 10.5 14.0423H13.8333C13.9484 14.0423 14.0417 13.949 14.0417 13.834V10.5007C14.0417 10.3856 13.9484 10.2923 13.8333 10.2923H10.5ZM9.04168 10.5007C9.04168 9.69524 9.69459 9.04232 10.5 9.04232H13.8333C14.6388 9.04232 15.2917 9.69524 15.2917 10.5007V13.834C15.2917 14.6394 14.6388 15.2923 13.8333 15.2923H10.5C9.69459 15.2923 9.04168 14.6394 9.04168 13.834V10.5007Z" fill="#0CAF60"/>
</svg>
