<svg width="20" height="20" viewBox="0 0 20 20" fill="none" xmlns="http://www.w3.org/2000/svg">
<g opacity="0.6" clip-path="url(#clip0_8713_235321)">
<path d="M11.6559 9.68704C11.6866 9.68707 11.7167 9.678 11.7424 9.66098C11.768 9.64396 11.7881 9.61975 11.8 9.59137C11.812 9.563 11.8152 9.53173 11.8095 9.50149C11.8037 9.47126 11.7891 9.4434 11.7676 9.42142L8.70508 6.30736C8.68332 6.28526 8.65547 6.27013 8.62508 6.26392C8.59469 6.2577 8.56314 6.26066 8.53445 6.27243C8.50575 6.2842 8.48121 6.30425 8.46395 6.33002C8.44668 6.35578 8.43747 6.38611 8.4375 6.41712V9.21829C8.4375 9.34261 8.48689 9.46184 8.57479 9.54975C8.6627 9.63766 8.78193 9.68704 8.90625 9.68704H11.6559Z" fill="#AC73FF"/>
<path d="M7.69531 10.4292C7.53487 10.2709 7.40738 10.0824 7.32022 9.87458C7.23306 9.66673 7.18795 9.44368 7.1875 9.21829V5.62454H4.375C3.71256 5.6265 3.07781 5.89052 2.6094 6.35894C2.14098 6.82736 1.87696 7.4621 1.875 8.12454V16.8745C1.875 17.5376 2.13839 18.1735 2.60723 18.6423C3.07607 19.1111 3.71196 19.3745 4.375 19.3745H10C10.663 19.3745 11.2989 19.1111 11.7678 18.6423C12.2366 18.1735 12.5 17.5376 12.5 16.8745V10.937H8.90625C8.68084 10.9367 8.45774 10.8917 8.24987 10.8045C8.04201 10.7174 7.85351 10.5898 7.69531 10.4292ZM14.5312 4.68704H17.2809C17.3116 4.68707 17.3417 4.678 17.3674 4.66098C17.393 4.64396 17.4131 4.61974 17.425 4.59137C17.437 4.563 17.4402 4.53173 17.4345 4.50149C17.4287 4.47126 17.4141 4.4434 17.3926 4.42142L14.3301 1.30736C14.3083 1.28526 14.2805 1.27013 14.2501 1.26392C14.2197 1.2577 14.1881 1.26066 14.1594 1.27243C14.1308 1.2842 14.1062 1.30425 14.0889 1.33002C14.0717 1.35578 14.0625 1.38611 14.0625 1.41712V4.21829C14.0625 4.34261 14.1119 4.46184 14.1998 4.54975C14.2877 4.63766 14.4069 4.68704 14.5312 4.68704Z" fill="#AC73FF"/>
<path d="M14.5312 5.9375C14.0765 5.93403 13.6413 5.75183 13.3197 5.43025C12.9982 5.10867 12.816 4.67352 12.8125 4.21875V0.625H8.59375C7.97237 0.625724 7.37665 0.872886 6.93727 1.31227C6.49789 1.75165 6.25072 2.34737 6.25 2.96875V4.375H7.89531C8.10532 4.37582 8.3131 4.41814 8.5067 4.49952C8.70031 4.5809 8.87592 4.69974 9.02344 4.84922L13.2875 9.18516C13.585 9.48697 13.7511 9.89417 13.7496 10.318V15.625H15.8219C17.0918 15.625 18.1246 14.5734 18.1246 13.2812V5.9375H14.5312Z" fill="#AC73FF"/>
</g>
<defs>
<clipPath id="clip0_8713_235321">
<rect width="20" height="20" fill="white"/>
</clipPath>
</defs>
</svg>
