<svg width="20" height="20" viewBox="0 0 20 20" fill="none" xmlns="http://www.w3.org/2000/svg">
<path d="M10 8.83301H15.833C16.3634 8.83301 16.872 9.04397 17.2471 9.41895C17.6221 9.79402 17.833 10.3026 17.833 10.833V13.333C17.833 13.8634 17.6221 14.372 17.2471 14.7471C16.872 15.122 16.3634 15.333 15.833 15.333H15.333V16.6377C15.333 17.0973 14.7978 17.3477 14.4453 17.0537L12.5186 15.4492L12.3789 15.333H10C9.46957 15.333 8.96101 15.1221 8.58594 14.7471C8.21087 14.372 8 13.8634 8 13.333V10.833C8 10.3026 8.21086 9.79402 8.58594 9.41895C8.91422 9.09066 9.34474 8.88815 9.80273 8.84277L10 8.83301Z" stroke="#A0AEC0"/>
<path d="M4.6665 13.666H4.1665C3.63607 13.666 3.12751 13.4552 2.75244 13.0801C2.37747 12.705 2.1665 12.1964 2.1665 11.666V5.83301C2.1665 5.30258 2.37737 4.79402 2.75244 4.41895C3.12751 4.04387 3.63607 3.83301 4.1665 3.83301H13.3335C13.8638 3.83309 14.3726 4.04395 14.7476 4.41895C15.1225 4.794 15.3335 5.30265 15.3335 5.83301V6.16602H9.1665C8.14984 6.16602 7.17446 6.57017 6.45557 7.28906C5.73678 8.00794 5.3335 8.98341 5.3335 10V13.333C5.3335 14.1351 5.58038 14.8811 6.00244 15.4971L5.53271 15.8496C5.17568 16.1171 4.6665 15.8622 4.6665 15.416V13.666Z" stroke="#A0AEC0"/>
</svg>
