<svg width="18" height="16" viewBox="0 0 18 16" fill="none" xmlns="http://www.w3.org/2000/svg">
<path fill-rule="evenodd" clip-rule="evenodd" d="M8.77917 5.16667C7.47434 5.16667 6.42083 6.22018 6.42083 7.525C6.42083 8.82982 7.47434 9.88333 8.77917 9.88333C10.084 9.88333 11.1375 8.82982 11.1375 7.525C11.1375 6.22018 10.084 5.16667 8.77917 5.16667ZM5.17083 7.525C5.17083 5.52982 6.78399 3.91667 8.77917 3.91667C10.7743 3.91667 12.3875 5.52982 12.3875 7.525C12.3875 9.52018 10.7743 11.1333 8.77917 11.1333C6.78399 11.1333 5.17083 9.52018 5.17083 7.525Z" fill="#0BA259"/>
<path fill-rule="evenodd" clip-rule="evenodd" d="M0.660412 5.02247C2.65284 1.8905 5.57252 0 8.77917 0C11.986 0 14.9057 1.89067 16.8982 5.02288C17.3523 5.73483 17.5583 6.6468 17.5583 7.52083C17.5583 8.39487 17.3523 9.30684 16.8982 10.0188C14.9057 13.151 11.986 15.0417 8.77917 15.0417C5.57238 15.0417 2.65259 13.151 0.660151 10.0188C0.206003 9.30684 0 8.39487 0 7.52083C0 6.64663 0.206082 5.73448 0.660412 5.02247ZM8.77917 1.25C6.10262 1.25 3.53908 2.826 1.71485 5.69379L1.71433 5.6946C1.41884 6.15754 1.25 6.8202 1.25 7.52083C1.25 8.22146 1.41884 8.88413 1.71433 9.34706L1.71485 9.34788C3.53908 12.2157 6.10262 13.7917 8.77917 13.7917C11.4557 13.7917 14.0193 12.2157 15.8435 9.34788L15.844 9.34706C16.1395 8.88413 16.3083 8.22146 16.3083 7.52083C16.3083 6.8202 16.1395 6.15754 15.844 5.6946L15.8435 5.69379C14.0193 2.826 11.4557 1.25 8.77917 1.25Z" fill="#0BA259"/>
</svg>
