<svg width="16" height="16" viewBox="0 0 16 16" fill="none" xmlns="http://www.w3.org/2000/svg">
<path fill-rule="evenodd" clip-rule="evenodd" d="M9.33398 1.5C9.61013 1.5 9.83398 1.72386 9.83398 2V4.66667C9.83398 4.71087 9.85154 4.75326 9.8828 4.78452C9.91406 4.81577 9.95645 4.83333 10.0007 4.83333H12.6673C12.9435 4.83333 13.1673 5.05719 13.1673 5.33333C13.1673 5.60948 12.9435 5.83333 12.6673 5.83333H10.0007C9.69123 5.83333 9.39449 5.71042 9.17569 5.49162C8.9569 5.27283 8.83398 4.97609 8.83398 4.66667V2C8.83398 1.72386 9.05784 1.5 9.33398 1.5Z" fill="#A0AEC0"/>
<path fill-rule="evenodd" clip-rule="evenodd" d="M4.66732 2.5C4.4463 2.5 4.23434 2.5878 4.07806 2.74408C3.92178 2.90036 3.83398 3.11232 3.83398 3.33333V12.6667C3.83398 12.8877 3.92178 13.0996 4.07806 13.2559C4.23434 13.4122 4.4463 13.5 4.66732 13.5H11.334C11.555 13.5 11.767 13.4122 11.9232 13.2559C12.0795 13.0996 12.1673 12.8877 12.1673 12.6667V5.54044L9.12688 2.5H4.66732ZM3.37096 2.03697C3.71477 1.69315 4.18109 1.5 4.66732 1.5H9.33398C9.46659 1.5 9.59377 1.55268 9.68754 1.64645L13.0209 4.97978C13.1146 5.07355 13.1673 5.20073 13.1673 5.33333V12.6667C13.1673 13.1529 12.9742 13.6192 12.6303 13.963C12.2865 14.3068 11.8202 14.5 11.334 14.5H4.66732C4.18109 14.5 3.71477 14.3068 3.37096 13.963C3.02714 13.6192 2.83398 13.1529 2.83398 12.6667V3.33333C2.83398 2.8471 3.02714 2.38079 3.37096 2.03697Z" fill="#A0AEC0"/>
<path fill-rule="evenodd" clip-rule="evenodd" d="M8.00065 6.83333C8.27679 6.83333 8.50065 7.05719 8.50065 7.33333V11.3333C8.50065 11.6095 8.27679 11.8333 8.00065 11.8333C7.72451 11.8333 7.50065 11.6095 7.50065 11.3333V7.33333C7.50065 7.05719 7.72451 6.83333 8.00065 6.83333Z" fill="#A0AEC0"/>
<path fill-rule="evenodd" clip-rule="evenodd" d="M5.6471 8.97978C5.84236 8.78452 6.15894 8.78452 6.3542 8.97978L8.00065 10.6262L9.6471 8.97978C9.84236 8.78452 10.1589 8.78452 10.3542 8.97978C10.5495 9.17504 10.5495 9.49162 10.3542 9.68689L8.3542 11.6869C8.15894 11.8821 7.84236 11.8821 7.6471 11.6869L5.6471 9.68689C5.45184 9.49162 5.45184 9.17504 5.6471 8.97978Z" fill="#A0AEC0"/>
</svg>
