<svg width="14" height="14" viewBox="0 0 14 14" fill="none" xmlns="http://www.w3.org/2000/svg">
<path fill-rule="evenodd" clip-rule="evenodd" d="M0 13.3333V2.5C0 1.83696 0.263392 1.20107 0.732233 0.732233C1.20107 0.263392 1.83696 0 2.5 0H10.8333C11.4964 0 12.1323 0.263392 12.6011 0.732233C13.0699 1.20107 13.3333 1.83696 13.3333 2.5V7.5C13.3333 8.16304 13.0699 8.79893 12.6011 9.26777C12.1323 9.73661 11.4964 10 10.8333 10H3.33333L0 13.3333ZM2.70833 3.33333C2.70833 2.98816 2.98816 2.70833 3.33333 2.70833H10C10.3452 2.70833 10.625 2.98816 10.625 3.33333C10.625 3.67851 10.3452 3.95833 10 3.95833H3.33333C2.98816 3.95833 2.70833 3.67851 2.70833 3.33333ZM3.33333 6.04167C2.98816 6.04167 2.70833 6.32149 2.70833 6.66667C2.70833 7.01184 2.98816 7.29167 3.33333 7.29167H8.33333C8.67851 7.29167 8.95833 7.01184 8.95833 6.66667C8.95833 6.32149 8.67851 6.04167 8.33333 6.04167H3.33333Z" fill="#0CAF60"/>
</svg>
