<svg width="18" height="20" viewBox="0 0 18 20" fill="none" xmlns="http://www.w3.org/2000/svg">
<path fill-rule="evenodd" clip-rule="evenodd" d="M8.75007 1.5C8.41855 1.5 8.10061 1.6317 7.86619 1.86612C7.63487 2.09743 7.50357 2.41008 7.50014 2.73684C7.50263 2.88381 7.46163 3.02814 7.38376 3.15135C7.32741 3.24051 7.25175 3.3186 7.1593 3.37862C7.12667 3.3999 7.09229 3.41871 7.05641 3.43479C6.0372 3.91987 5.16829 4.67198 4.54206 5.61132C3.91607 6.55031 3.55605 7.64117 3.50007 8.76809V11.75C3.50007 11.7801 3.49825 11.8102 3.49463 11.8401C3.40527 12.5784 3.14381 13.2854 2.73129 13.9042C2.7098 13.9364 2.68793 13.9683 2.66569 14H14.8345C14.8122 13.9683 14.7903 13.9364 14.7688 13.9042C14.3563 13.2854 14.0949 12.5784 14.0055 11.8401C14.0019 11.8102 14.0001 11.7801 14.0001 11.75V8.76809C13.9441 7.64117 13.5841 6.55031 12.9581 5.61132C12.3289 4.6676 11.4548 3.91287 10.4295 3.42802C10.1673 3.30405 10.0001 3.04002 10.0001 2.75C10.0001 2.41848 9.86837 2.10054 9.63395 1.86612C9.39953 1.6317 9.08159 1.5 8.75007 1.5ZM6.04256 2.26836C6.14049 1.71791 6.40478 1.20621 6.80553 0.805456C7.32125 0.289731 8.02072 0 8.75007 0C9.47941 0 10.1789 0.289731 10.6946 0.805456C11.0954 1.20621 11.3597 1.71791 11.4576 2.26836C12.5623 2.86853 13.5064 3.72962 14.2062 4.77927C14.9863 5.94949 15.4333 7.30995 15.4992 8.71484C15.4998 8.72655 15.5001 8.73827 15.5001 8.75V11.7024C15.5659 12.1922 15.7426 12.6606 16.0169 13.0721C16.2992 13.4955 16.6769 13.8466 17.1196 14.0974C17.416 14.2652 17.5621 14.6117 17.4753 14.9411C17.3885 15.2705 17.0907 15.5 16.7501 15.5H0.750069C0.40945 15.5 0.111605 15.2705 0.0248205 14.9411C-0.061964 14.6117 0.0841082 14.2652 0.380504 14.0974C0.823266 13.8466 1.20097 13.4955 1.48322 13.0721C1.75753 12.6606 1.93422 12.1922 2.00007 11.7024V8.75C2.00007 8.73827 2.00034 8.72655 2.00089 8.71484C2.06684 7.30995 2.51383 5.94949 3.29398 4.77927C3.99375 3.72962 4.93789 2.86852 6.04256 2.26836Z" fill="currentColor"/>
<path fill-rule="evenodd" clip-rule="evenodd" d="M5.75007 14C6.16428 14 6.50007 14.3358 6.50007 14.75V15.75C6.50007 16.3467 6.73712 16.919 7.15908 17.341C7.58103 17.7629 8.15333 18 8.75007 18C9.34681 18 9.9191 17.7629 10.3411 17.341C10.763 16.919 11.0001 16.3467 11.0001 15.75V14.75C11.0001 14.3358 11.3359 14 11.7501 14C12.1643 14 12.5001 14.3358 12.5001 14.75V15.75C12.5001 16.7446 12.105 17.6984 11.4017 18.4017C10.6985 19.1049 9.74463 19.5 8.75007 19.5C7.75551 19.5 6.80168 19.1049 6.09842 18.4017C5.39516 17.6984 5.00007 16.7446 5.00007 15.75V14.75C5.00007 14.3358 5.33586 14 5.75007 14Z" fill="currentColor"/>
</svg>
