<svg width="26" height="26" viewBox="0 0 26 26" fill="none" xmlns="http://www.w3.org/2000/svg">
<path fill-rule="evenodd" clip-rule="evenodd" d="M12.0001 5.75C11.6685 5.75 11.3506 5.8817 11.1162 6.11612C10.8849 6.34743 10.7536 6.66008 10.7501 6.98684C10.7526 7.13381 10.7116 7.27814 10.6338 7.40135C10.5774 7.49051 10.5018 7.5686 10.4093 7.62862C10.3767 7.6499 10.3423 7.66871 10.3064 7.68479C9.2872 8.16987 8.41829 8.92198 7.79206 9.86132C7.16607 10.8003 6.80605 11.8912 6.75007 13.0181V16C6.75007 16.0301 6.74825 16.0602 6.74463 16.0901C6.65527 16.8284 6.39381 17.5354 5.98129 18.1542C5.9598 18.1864 5.93793 18.2183 5.91569 18.25H18.0845C18.0622 18.2183 18.0403 18.1864 18.0188 18.1542C17.6063 17.5354 17.3449 16.8284 17.2555 16.0901C17.2519 16.0602 17.2501 16.0301 17.2501 16V13.0181C17.1941 11.8912 16.8341 10.8003 16.2081 9.86132C15.5789 8.9176 14.7048 8.16287 13.6795 7.67802C13.4173 7.55405 13.2501 7.29002 13.2501 7C13.2501 6.66848 13.1184 6.35054 12.884 6.11612C12.6495 5.8817 12.3316 5.75 12.0001 5.75ZM9.29256 6.51836C9.39049 5.96791 9.65478 5.45621 10.0555 5.05546C10.5713 4.53973 11.2707 4.25 12.0001 4.25C12.7294 4.25 13.4289 4.53973 13.9446 5.05546C14.3454 5.45621 14.6097 5.96791 14.7076 6.51836C15.8123 7.11853 16.7564 7.97962 17.4562 9.02927C18.2363 10.1995 18.6833 11.56 18.7492 12.9648C18.7498 12.9765 18.7501 12.9883 18.7501 13V15.9524C18.8159 16.4422 18.9926 16.9106 19.2669 17.3221C19.5492 17.7455 19.9269 18.0966 20.3696 18.3474C20.666 18.5152 20.8121 18.8617 20.7253 19.1911C20.6385 19.5205 20.3407 19.75 20.0001 19.75H4.00007C3.65945 19.75 3.36161 19.5205 3.27482 19.1911C3.18804 18.8617 3.33411 18.5152 3.6305 18.3474C4.07327 18.0966 4.45097 17.7455 4.73322 17.3221C5.00753 16.9106 5.18422 16.4422 5.25007 15.9524V13C5.25007 12.9883 5.25034 12.9765 5.25089 12.9648C5.31684 11.56 5.76383 10.1995 6.54398 9.02927C7.24375 7.97962 8.18789 7.11852 9.29256 6.51836Z" fill="#111827"/>
<path fill-rule="evenodd" clip-rule="evenodd" d="M9.00007 18.25C9.41428 18.25 9.75007 18.5858 9.75007 19V20C9.75007 20.5967 9.98712 21.169 10.4091 21.591C10.831 22.0129 11.4033 22.25 12.0001 22.25C12.5968 22.25 13.1691 22.0129 13.5911 21.591C14.013 21.169 14.2501 20.5967 14.2501 20V19C14.2501 18.5858 14.5859 18.25 15.0001 18.25C15.4143 18.25 15.7501 18.5858 15.7501 19V20C15.7501 20.9946 15.355 21.9484 14.6517 22.6517C13.9485 23.3549 12.9946 23.75 12.0001 23.75C11.0055 23.75 10.0517 23.3549 9.34842 22.6517C8.64516 21.9484 8.25007 20.9946 8.25007 20V19C8.25007 18.5858 8.58586 18.25 9.00007 18.25Z" fill="#111827"/>
<rect x="15" y="1" width="10" height="10" rx="5" fill="#E03137"/>
<rect x="15" y="1" width="10" height="10" rx="5" stroke="white" stroke-width="2"/>
</svg>
