<svg width="18" height="18" viewBox="0 0 18 18" fill="none" xmlns="http://www.w3.org/2000/svg">
<path fill-rule="evenodd" clip-rule="evenodd" d="M5.10119 6.83476C5.44637 6.83476 5.72619 7.11458 5.72619 7.45976V13.1765C5.72619 13.5217 5.44637 13.8015 5.10119 13.8015C4.75601 13.8015 4.47619 13.5217 4.47619 13.1765V7.45976C4.47619 7.11458 4.75601 6.83476 5.10119 6.83476Z" fill="#A0AEC0"/>
<path fill-rule="evenodd" clip-rule="evenodd" d="M8.99008 4.09927C9.33526 4.09927 9.61508 4.37909 9.61508 4.72427V13.1765C9.61508 13.5217 9.33526 13.8015 8.99008 13.8015C8.6449 13.8015 8.36508 13.5217 8.36508 13.1765V4.72427C8.36508 4.37909 8.6449 4.09927 8.99008 4.09927Z" fill="#A0AEC0"/>
<path fill-rule="evenodd" clip-rule="evenodd" d="M12.8155 9.85569C13.1607 9.85569 13.4405 10.1355 13.4405 10.4807V13.1765C13.4405 13.5217 13.1607 13.8015 12.8155 13.8015C12.4703 13.8015 12.1905 13.5217 12.1905 13.1765V10.4807C12.1905 10.1355 12.4703 9.85569 12.8155 9.85569Z" fill="#A0AEC0"/>
<path fill-rule="evenodd" clip-rule="evenodd" d="M1.36129 1.50314C2.25849 0.540697 3.5377 0 5.05357 0H12.8631C14.3825 0 15.6621 0.540446 16.5586 1.50343C17.4505 2.46137 17.9167 3.78653 17.9167 5.2793V12.6374C17.9167 14.1301 17.4505 15.4553 16.5586 16.4132C15.6621 17.3762 14.3825 17.9167 12.8631 17.9167H5.05357C3.53413 17.9167 2.25458 17.3762 1.35804 16.4132C0.466188 15.4553 0 14.1301 0 12.6374V5.2793C0 3.78577 0.468628 2.46071 1.36129 1.50314ZM2.27562 2.35549C1.63455 3.04318 1.25 4.04527 1.25 5.2793V12.6374C1.25 13.8722 1.63302 14.8742 2.27292 15.5615C2.90811 16.2437 3.84285 16.6667 5.05357 16.6667H12.8631C14.0738 16.6667 15.0086 16.2437 15.6438 15.5615C16.2836 14.8742 16.6667 13.8722 16.6667 12.6374V5.2793C16.6667 4.0445 16.2836 3.04251 15.6438 2.35519C15.0086 1.67292 14.0738 1.25 12.8631 1.25H5.05357C3.84722 1.25 2.91215 1.67267 2.27562 2.35549Z" fill="#A0AEC0"/>
</svg>
