<svg width="20" height="20" viewBox="0 0 20 20" fill="none" xmlns="http://www.w3.org/2000/svg">
<path d="M14.1667 11.6667C14.3877 11.6667 14.5996 11.5789 14.7559 11.4226C14.9122 11.2663 15 11.0543 15 10.8333C15 10.6123 14.9122 10.4004 14.7559 10.2441C14.5996 10.0878 14.3877 10 14.1667 10C13.9457 10 13.7337 10.0878 13.5774 10.2441C13.4211 10.4004 13.3333 10.6123 13.3333 10.8333C13.3333 11.0543 13.4211 11.2663 13.5774 11.4226C13.7337 11.5789 13.9457 11.6667 14.1667 11.6667ZM14.1667 15C14.3877 15 14.5996 14.9122 14.7559 14.7559C14.9122 14.5996 15 14.3877 15 14.1667C15 13.9457 14.9122 13.7337 14.7559 13.5774C14.5996 13.4211 14.3877 13.3333 14.1667 13.3333C13.9457 13.3333 13.7337 13.4211 13.5774 13.5774C13.4211 13.7337 13.3333 13.9457 13.3333 14.1667C13.3333 14.3877 13.4211 14.5996 13.5774 14.7559C13.7337 14.9122 13.9457 15 14.1667 15ZM10.8333 10.8333C10.8333 11.0543 10.7455 11.2663 10.5893 11.4226C10.433 11.5789 10.221 11.6667 10 11.6667C9.77899 11.6667 9.56702 11.5789 9.41074 11.4226C9.25446 11.2663 9.16667 11.0543 9.16667 10.8333C9.16667 10.6123 9.25446 10.4004 9.41074 10.2441C9.56702 10.0878 9.77899 10 10 10C10.221 10 10.433 10.0878 10.5893 10.2441C10.7455 10.4004 10.8333 10.6123 10.8333 10.8333ZM10.8333 14.1667C10.8333 14.3877 10.7455 14.5996 10.5893 14.7559C10.433 14.9122 10.221 15 10 15C9.77899 15 9.56702 14.9122 9.41074 14.7559C9.25446 14.5996 9.16667 14.3877 9.16667 14.1667C9.16667 13.9457 9.25446 13.7337 9.41074 13.5774C9.56702 13.4211 9.77899 13.3333 10 13.3333C10.221 13.3333 10.433 13.4211 10.5893 13.5774C10.7455 13.7337 10.8333 13.9457 10.8333 14.1667ZM5.83333 11.6667C6.05435 11.6667 6.26631 11.5789 6.42259 11.4226C6.57887 11.2663 6.66667 11.0543 6.66667 10.8333C6.66667 10.6123 6.57887 10.4004 6.42259 10.2441C6.26631 10.0878 6.05435 10 5.83333 10C5.61232 10 5.40036 10.0878 5.24408 10.2441C5.0878 10.4004 5 10.6123 5 10.8333C5 11.0543 5.0878 11.2663 5.24408 11.4226C5.40036 11.5789 5.61232 11.6667 5.83333 11.6667ZM5.83333 15C6.05435 15 6.26631 14.9122 6.42259 14.7559C6.57887 14.5996 6.66667 14.3877 6.66667 14.1667C6.66667 13.9457 6.57887 13.7337 6.42259 13.5774C6.26631 13.4211 6.05435 13.3333 5.83333 13.3333C5.61232 13.3333 5.40036 13.4211 5.24408 13.5774C5.0878 13.7337 5 13.9457 5 14.1667C5 14.3877 5.0878 14.5996 5.24408 14.7559C5.40036 14.9122 5.61232 15 5.83333 15Z" fill="#A0AEC0"/>
<path fill-rule="evenodd" clip-rule="evenodd" d="M5.83331 1.45801C5.99907 1.45801 6.15805 1.52386 6.27526 1.64107C6.39247 1.75828 6.45831 1.91725 6.45831 2.08301V2.71884C7.00998 2.70801 7.61748 2.70801 8.28581 2.70801H11.7133C12.3825 2.70801 12.99 2.70801 13.5416 2.71884V2.08301C13.5416 1.91725 13.6075 1.75828 13.7247 1.64107C13.8419 1.52386 14.0009 1.45801 14.1666 1.45801C14.3324 1.45801 14.4914 1.52386 14.6086 1.64107C14.7258 1.75828 14.7916 1.91725 14.7916 2.08301V2.77217C15.0083 2.78884 15.2136 2.80995 15.4075 2.83551C16.3841 2.96717 17.175 3.24384 17.7991 3.86717C18.4225 4.49134 18.6991 5.28217 18.8308 6.25884C18.9583 7.20884 18.9583 8.42134 18.9583 9.95301V11.713C18.9583 13.2447 18.9583 14.458 18.8308 15.4072C18.6991 16.3838 18.4225 17.1747 17.7991 17.7988C17.175 18.4222 16.3841 18.6988 15.4075 18.8305C14.4575 18.958 13.245 18.958 11.7133 18.958H8.28748C6.75581 18.958 5.54248 18.958 4.59331 18.8305C3.61665 18.6988 2.82581 18.4222 2.20165 17.7988C1.57831 17.1747 1.30165 16.3838 1.16998 15.4072C1.04248 14.4572 1.04248 13.2447 1.04248 11.713V9.95301C1.04248 8.42134 1.04248 7.20801 1.16998 6.25884C1.30165 5.28217 1.57831 4.49134 2.20165 3.86717C2.82581 3.24384 3.61665 2.96717 4.59331 2.83551C4.78776 2.80995 4.99304 2.78884 5.20915 2.77217V2.08301C5.20915 1.91739 5.27488 1.75855 5.39191 1.64136C5.50894 1.52417 5.6677 1.45823 5.83331 1.45801ZM4.75831 4.07467C3.92081 4.18717 3.43748 4.39884 3.08498 4.75134C2.73248 5.10384 2.52081 5.58717 2.40831 6.42467C2.38943 6.56634 2.37331 6.71606 2.35998 6.87384H17.64C17.6266 6.71606 17.6105 6.56606 17.5916 6.42384C17.4791 5.58634 17.2675 5.10301 16.915 4.75051C16.5625 4.39801 16.0791 4.18634 15.2408 4.07384C14.385 3.95884 13.2558 3.95717 11.6666 3.95717H8.33331C6.74415 3.95717 5.61581 3.95967 4.75831 4.07467ZM2.29165 9.99967C2.29165 9.28801 2.29165 8.66884 2.30248 8.12467H17.6975C17.7083 8.66884 17.7083 9.28801 17.7083 9.99967V11.6663C17.7083 13.2555 17.7066 14.3847 17.5916 15.2413C17.4791 16.0788 17.2675 16.5622 16.915 16.9147C16.5625 17.2672 16.0791 17.4788 15.2408 17.5913C14.385 17.7063 13.2558 17.708 11.6666 17.708H8.33331C6.74415 17.708 5.61581 17.7063 4.75831 17.5913C3.92081 17.4788 3.43748 17.2672 3.08498 16.9147C2.73248 16.5622 2.52081 16.0788 2.40831 15.2405C2.29331 14.3847 2.29165 13.2555 2.29165 11.6663V9.99967Z" fill="#A0AEC0"/>
</svg>
