<svg width="18" height="10" viewBox="0 0 18 10" fill="none" xmlns="http://www.w3.org/2000/svg">
<path fill-rule="evenodd" clip-rule="evenodd" d="M16.9419 0.392043C17.186 0.63612 17.186 1.03185 16.9419 1.27593L10.2753 7.94259C10.0312 8.18667 9.63547 8.18667 9.39139 7.94259L6.5 5.0512L1.94194 9.60926C1.69786 9.85334 1.30214 9.85334 1.05806 9.60926C0.813981 9.36518 0.813981 8.96945 1.05806 8.72538L6.05806 3.72538C6.30214 3.4813 6.69786 3.4813 6.94194 3.72538L9.83333 6.61677L16.0581 0.392043C16.3021 0.147965 16.6979 0.147965 16.9419 0.392043Z" fill="#A0AEC0"/>
<path fill-rule="evenodd" clip-rule="evenodd" d="M10.0417 0.833984C10.0417 0.488806 10.3215 0.208984 10.6667 0.208984H16.5C16.8452 0.208984 17.125 0.488806 17.125 0.833984V6.66732C17.125 7.0125 16.8452 7.29232 16.5 7.29232C16.1548 7.29232 15.875 7.0125 15.875 6.66732V1.45898H10.6667C10.3215 1.45898 10.0417 1.17916 10.0417 0.833984Z" fill="#A0AEC0"/>
</svg>
