<svg width="113" height="103" viewBox="0 0 113 103" fill="none" xmlns="http://www.w3.org/2000/svg">
<g opacity="0.8">
<path d="M55.6537 80.0014C74.3139 80.0014 89.4411 64.8374 89.4411 46.1316C89.4411 27.4258 74.3139 12.2617 55.6537 12.2617C36.9934 12.2617 21.8662 27.4258 21.8662 46.1316C21.8662 64.8374 36.9934 80.0014 55.6537 80.0014Z" fill="#EAEEF9"/>
<path d="M30.7717 24.1875H78.8355C80.739 24.1875 82.2347 25.6868 82.2347 27.5949V58.0574C82.2347 59.9655 80.739 61.4648 78.8355 61.4648H30.7717C28.8682 61.4648 27.3726 59.9655 27.3726 58.0574V27.5949C27.3726 25.6868 28.9362 24.1875 30.7717 24.1875Z" fill="#DAE2EB"/>
<path d="M94.9264 37.7014C95.9796 36.7365 96.0532 35.0985 95.0907 34.0427C94.1282 32.9869 92.4942 32.9132 91.441 33.878C90.3877 34.8429 90.3142 36.4809 91.2767 37.5367C92.2391 38.5925 93.8732 38.6662 94.9264 37.7014Z" fill="#EAEEF9"/>
<path d="M36.1294 15.6513C37.022 15.3605 37.5105 14.3993 37.2203 13.5045C36.9302 12.6097 35.9713 12.12 35.0787 12.4109C34.186 12.7017 33.6976 13.6629 33.9877 14.5577C34.2779 15.4526 35.2367 15.9422 36.1294 15.6513Z" fill="#EAEEF9"/>
<g filter="url(#filter0_d_7232_15600)">
<path d="M39.4736 10.1452C40.1119 10.1452 40.6293 9.62649 40.6293 8.98665C40.6293 8.34681 40.1119 7.82812 39.4736 7.82812C38.8353 7.82812 38.3179 8.34681 38.3179 8.98665C38.3179 9.62649 38.8353 10.1452 39.4736 10.1452Z" fill="url(#paint0_linear_7232_15600)"/>
</g>
<g filter="url(#filter1_d_7232_15600)">
<path d="M94.4041 26.3683C95.0049 26.3683 95.4919 25.8801 95.4919 25.2779C95.4919 24.6757 95.0049 24.1875 94.4041 24.1875C93.8034 24.1875 93.3164 24.6757 93.3164 25.2779C93.3164 25.8801 93.8034 26.3683 94.4041 26.3683Z" fill="url(#paint1_linear_7232_15600)"/>
</g>
<path d="M67.7265 10.2065C68.0314 9.92723 68.0527 9.45306 67.7741 9.14744C67.4955 8.84182 67.0224 8.82047 66.7176 9.09977C66.4127 9.37906 66.3914 9.85323 66.67 10.1588C66.9486 10.4645 67.4216 10.4858 67.7265 10.2065Z" fill="#EAEEF9"/>
<path d="M83.1994 43.7323V58.725C83.1994 60.6331 81.6358 62.2688 79.6643 62.2688H30.2409C28.3374 62.2688 26.7058 60.7013 26.7058 58.725V42.4375" stroke="#1676EE" stroke-width="3" stroke-linecap="round" stroke-linejoin="round"/>
<g filter="url(#filter2_d_7232_15600)">
<path d="M78.9353 35.3359H63.392C61.8794 35.3359 60.419 35.8578 59.2715 36.797L55.203 40.136C54.0555 41.0752 52.5951 41.5968 51.0825 41.5968H33.4006C31.6272 41.5968 30.1667 43.0578 30.1667 44.8317C30.1667 44.9882 30.1668 45.1447 30.219 45.3012L33.4528 62.5186C33.7136 64.136 35.0697 65.3359 36.6866 65.3359H74.3453C75.9623 65.3359 77.3184 64.1882 77.5792 62.5708L82.1171 39.0403C82.43 37.2664 81.2303 35.649 79.4569 35.3359C79.3005 35.3359 79.0918 35.3359 78.9353 35.3359Z" fill="white"/>
</g>
<g filter="url(#filter3_d_7232_15600)">
<path d="M85.9858 30.7148H65.7269C63.7554 30.7148 61.8519 31.3965 60.3563 32.6232L55.0536 36.9847C53.558 38.2113 51.6545 38.8927 49.683 38.8927H26.6368C24.3254 38.8927 22.4219 40.801 22.4219 43.118C22.4219 43.3225 22.4219 43.5269 22.4899 43.7313L26.7048 66.2203C27.0447 68.333 28.8123 69.9003 30.9197 69.9003H80.0033C82.1107 69.9003 83.8782 68.4012 84.2182 66.2886L90.1328 35.5535C90.5407 33.2364 88.977 31.1237 86.6656 30.7148C86.4616 30.7148 86.1897 30.7148 85.9858 30.7148Z" fill="white"/>
</g>
<path d="M46.7601 54.0177C47.9616 54.0177 48.9355 53.0412 48.9355 51.8368C48.9355 50.6324 47.9616 49.6562 46.7601 49.6562C45.5587 49.6562 44.5847 50.6324 44.5847 51.8368C44.5847 53.0412 45.5587 54.0177 46.7601 54.0177Z" fill="#1C3754"/>
<path d="M63.8922 53.9513C65.0937 53.9513 66.0676 52.9751 66.0676 51.7707C66.0676 50.5663 65.0937 49.5898 63.8922 49.5898C62.6907 49.5898 61.7168 50.5663 61.7168 51.7707C61.7168 52.9751 62.6907 53.9513 63.8922 53.9513Z" fill="#1C3754"/>
<g filter="url(#filter4_d_7232_15600)">
<path d="M89.2585 68.3407C88.9865 69.4992 88.5786 70.6578 88.1028 71.68C86.8111 74.1333 84.8396 76.1097 82.3922 77.3363C79.8768 78.6312 76.8856 79.1082 73.8264 78.4949C66.7562 76.9956 62.2013 70.1126 63.6969 63.0251C65.1926 55.9377 72.0588 51.3717 79.129 52.871C81.6444 53.4162 83.8878 54.6428 85.7234 56.4147C88.8506 59.5495 90.1422 64.0473 89.2585 68.3407Z" fill="url(#paint2_linear_7232_15600)"/>
</g>
<path d="M88.0937 71.6715C86.802 74.1249 84.8304 76.1014 82.383 77.3281L71.3699 66.2879L73.4094 65.4699L77.1484 65.2656H81.7032L88.0937 71.6715Z" fill="url(#paint3_linear_7232_15600)"/>
<path d="M80.615 64.5165H77.6236V61.518C77.6236 60.9047 77.1478 60.3594 76.468 60.3594C75.8561 60.3594 75.3123 60.8365 75.3123 61.518V64.5165H72.321C71.7091 64.5165 71.1653 64.9937 71.1653 65.6752C71.1653 66.3567 71.6411 66.8335 72.321 66.8335H75.3123V69.8323C75.3123 70.4456 75.7881 70.9906 76.468 70.9906C77.0798 70.9906 77.6236 70.5138 77.6236 69.8323V66.8335H80.615C81.2268 66.8335 81.7707 66.3567 81.7707 65.6752C81.7707 64.9937 81.2268 64.5165 80.615 64.5165Z" fill="url(#paint4_linear_7232_15600)"/>
<path d="M52.6621 38.2261C50.2827 33.592 49.7388 27.9357 51.3024 22.8927C52.866 17.8497 56.4691 13.4882 61.024 11.0348C62.4516 10.2852 64.0152 9.67183 65.6468 9.60368C67.2784 9.53553 68.978 10.0807 70.0657 11.3755C71.1534 12.6022 71.3574 14.5785 70.4736 15.9415C69.5218 17.2363 67.6863 17.7134 66.1227 17.3726C63.6753 16.8956 61.6358 14.9874 61.024 12.6704C60.4121 10.3533 61.2279 7.62737 63.0635 6.05995C64.2872 4.96957 65.9187 4.42439 67.4823 3.94734C74.9605 1.76659 83.0504 1.49399 90.6645 3.12956" stroke="#C9D4E2" stroke-miterlimit="10" stroke-dasharray="4 4"/>
<path d="M57.4204 56.3555H53.2734V57.3777H57.4204V56.3555Z" fill="#1C3754"/>
<path d="M94.6759 1.35647C94.6079 2.3787 94.54 3.26463 93.7922 3.46908C93.0443 3.67352 92.7044 2.99204 92.2285 2.03796C91.7527 1.15202 92.0246 0.266091 92.8404 0.0616453C93.6562 -0.142801 94.8119 0.129794 94.6759 1.35647Z" fill="#DAE2EB"/>
<path d="M93.9283 6.12448C94.1322 4.8978 94.3362 4.28446 93.6563 3.94372C92.9085 3.60298 92.4326 4.21631 91.6848 5.0341C91.005 5.78373 91.4129 6.80596 92.0927 7.14671C92.8405 7.5556 93.7243 7.14671 93.9283 6.12448Z" fill="#DAE2EB"/>
<path d="M94.8123 3.94575C94.7443 4.42279 94.4044 4.76353 93.9285 4.83168C93.7246 4.83168 93.5206 4.83168 93.2487 4.83168C92.2969 4.69538 91.5491 4.08205 91.6171 3.46871C91.6851 2.85537 92.5688 2.51463 93.5886 2.65093C93.7925 2.65093 93.9965 2.71907 94.1325 2.78722C94.6083 2.92352 94.8803 3.40056 94.8123 3.94575C94.8123 3.94575 94.8123 3.8776 94.8123 3.94575Z" fill="#1C3754"/>
<path d="M20.4402 22.6835C20.4402 21.525 20.4402 20.4346 21.256 20.0939C22.1398 19.7531 22.6156 20.5709 23.2275 21.6613C23.8393 22.6835 23.5674 23.7058 22.6836 24.0465C21.9358 24.3872 20.4402 24.1828 20.4402 22.6835Z" fill="#DAE2EB"/>
<path d="M20.9148 17.0991C20.7789 18.5302 20.5749 19.2798 21.4587 19.6206C22.3425 19.9613 22.8184 19.2117 23.6342 18.1213C24.314 17.1672 23.8381 16.0087 22.9543 15.668C22.0706 15.3272 21.0508 15.9406 20.9148 17.0991Z" fill="#DAE2EB"/>
<path d="M20.1667 19.7569C20.1667 19.2117 20.5746 18.8029 21.0505 18.7347C21.2545 18.6666 21.5264 18.6666 21.7983 18.7347C22.8861 18.8029 23.7698 19.4162 23.7019 20.0977C23.6339 20.7792 22.7501 21.2562 21.6624 21.1199C21.4584 21.1199 21.2545 21.0518 21.0505 20.9836C20.5067 20.8473 20.1667 20.3021 20.1667 19.7569Z" fill="#1C3754"/>
<path d="M24.7214 19.9648C31.7237 19.9648 44.6404 24.0538 44.8443 38.9783" stroke="#C9D4E2" stroke-miterlimit="10" stroke-dasharray="4 4"/>
</g>
<defs>
<filter id="filter0_d_7232_15600" x="30.3179" y="4.82812" width="18.3115" height="18.3164" filterUnits="userSpaceOnUse" color-interpolation-filters="sRGB">
<feFlood flood-opacity="0" result="BackgroundImageFix"/>
<feColorMatrix in="SourceAlpha" type="matrix" values="0 0 0 0 0 0 0 0 0 0 0 0 0 0 0 0 0 0 127 0" result="hardAlpha"/>
<feOffset dy="5"/>
<feGaussianBlur stdDeviation="4"/>
<feColorMatrix type="matrix" values="0 0 0 0 0.1125 0 0 0 0 0.295916 0 0 0 0 1 0 0 0 0.22 0"/>
<feBlend mode="normal" in2="BackgroundImageFix" result="effect1_dropShadow_7232_15600"/>
<feBlend mode="normal" in="SourceGraphic" in2="effect1_dropShadow_7232_15600" result="shape"/>
</filter>
<filter id="filter1_d_7232_15600" x="85.3164" y="21.1875" width="18.1755" height="18.1797" filterUnits="userSpaceOnUse" color-interpolation-filters="sRGB">
<feFlood flood-opacity="0" result="BackgroundImageFix"/>
<feColorMatrix in="SourceAlpha" type="matrix" values="0 0 0 0 0 0 0 0 0 0 0 0 0 0 0 0 0 0 127 0" result="hardAlpha"/>
<feOffset dy="5"/>
<feGaussianBlur stdDeviation="4"/>
<feColorMatrix type="matrix" values="0 0 0 0 0.1125 0 0 0 0 0.295916 0 0 0 0 1 0 0 0 0.22 0"/>
<feBlend mode="normal" in2="BackgroundImageFix" result="effect1_dropShadow_7232_15600"/>
<feBlend mode="normal" in="SourceGraphic" in2="effect1_dropShadow_7232_15600" result="shape"/>
</filter>
<filter id="filter2_d_7232_15600" x="20.1667" y="16.3359" width="72" height="50" filterUnits="userSpaceOnUse" color-interpolation-filters="sRGB">
<feFlood flood-opacity="0" result="BackgroundImageFix"/>
<feColorMatrix in="SourceAlpha" type="matrix" values="0 0 0 0 0 0 0 0 0 0 0 0 0 0 0 0 0 0 127 0" result="hardAlpha"/>
<feOffset dy="-9"/>
<feGaussianBlur stdDeviation="5"/>
<feColorMatrix type="matrix" values="0 0 0 0 0.397708 0 0 0 0 0.47749 0 0 0 0 0.575 0 0 0 0.13 0"/>
<feBlend mode="normal" in2="BackgroundImageFix" result="effect1_dropShadow_7232_15600"/>
<feBlend mode="normal" in="SourceGraphic" in2="effect1_dropShadow_7232_15600" result="shape"/>
</filter>
<filter id="filter3_d_7232_15600" x="0.421875" y="19.7148" width="111.776" height="83.1836" filterUnits="userSpaceOnUse" color-interpolation-filters="sRGB">
<feFlood flood-opacity="0" result="BackgroundImageFix"/>
<feColorMatrix in="SourceAlpha" type="matrix" values="0 0 0 0 0 0 0 0 0 0 0 0 0 0 0 0 0 0 127 0" result="hardAlpha"/>
<feOffset dy="11"/>
<feGaussianBlur stdDeviation="11"/>
<feColorMatrix type="matrix" values="0 0 0 0 0.397708 0 0 0 0 0.47749 0 0 0 0 0.575 0 0 0 0.18 0"/>
<feBlend mode="normal" in2="BackgroundImageFix" result="effect1_dropShadow_7232_15600"/>
<feBlend mode="normal" in="SourceGraphic" in2="effect1_dropShadow_7232_15600" result="shape"/>
</filter>
<filter id="filter4_d_7232_15600" x="55.4126" y="49.5859" width="42.1182" height="42.1758" filterUnits="userSpaceOnUse" color-interpolation-filters="sRGB">
<feFlood flood-opacity="0" result="BackgroundImageFix"/>
<feColorMatrix in="SourceAlpha" type="matrix" values="0 0 0 0 0 0 0 0 0 0 0 0 0 0 0 0 0 0 127 0" result="hardAlpha"/>
<feOffset dy="5"/>
<feGaussianBlur stdDeviation="4"/>
<feColorMatrix type="matrix" values="0 0 0 0 0.1125 0 0 0 0 0.295916 0 0 0 0 1 0 0 0 0.22 0"/>
<feBlend mode="normal" in2="BackgroundImageFix" result="effect1_dropShadow_7232_15600"/>
<feBlend mode="normal" in="SourceGraphic" in2="effect1_dropShadow_7232_15600" result="shape"/>
</filter>
<linearGradient id="paint0_linear_7232_15600" x1="38.3185" y1="8.98776" x2="40.6304" y2="8.98776" gradientUnits="userSpaceOnUse">
<stop stop-color="#83A6FF"/>
<stop offset="1" stop-color="#5A78FF"/>
</linearGradient>
<linearGradient id="paint1_linear_7232_15600" x1="93.317" y1="25.2789" x2="95.4929" y2="25.2789" gradientUnits="userSpaceOnUse">
<stop stop-color="#83A6FF"/>
<stop offset="1" stop-color="#5A78FF"/>
</linearGradient>
<linearGradient id="paint2_linear_7232_15600" x1="63.42" y1="65.6855" x2="89.5434" y2="65.6855" gradientUnits="userSpaceOnUse">
<stop stop-color="#83A6FF"/>
<stop offset="1" stop-color="#5A78FF"/>
</linearGradient>
<linearGradient id="paint3_linear_7232_15600" x1="76.8419" y1="66.0955" x2="83.9366" y2="73.173" gradientUnits="userSpaceOnUse">
<stop stop-color="#4F6AFF"/>
<stop offset="1" stop-color="#657EFF" stop-opacity="0"/>
</linearGradient>
<linearGradient id="paint4_linear_7232_15600" x1="79.7577" y1="68.9701" x2="74.1514" y2="63.3774" gradientUnits="userSpaceOnUse">
<stop offset="0.0113208" stop-color="#C2D1FF"/>
<stop offset="1" stop-color="white"/>
</linearGradient>
</defs>
</svg>
