<svg width="20" height="20" viewBox="0 0 20 20" fill="none" xmlns="http://www.w3.org/2000/svg">
<path fill-rule="evenodd" clip-rule="evenodd" d="M10 3.125C8.50423 3.125 7.29167 4.33756 7.29167 5.83333C7.29167 7.3291 8.50423 8.54167 10 8.54167C11.4958 8.54167 12.7083 7.3291 12.7083 5.83333C12.7083 4.33756 11.4958 3.125 10 3.125ZM6.04167 5.83333C6.04167 3.64721 7.81387 1.875 10 1.875C12.1861 1.875 13.9583 3.64721 13.9583 5.83333C13.9583 8.01946 12.1861 9.79167 10 9.79167C7.81387 9.79167 6.04167 8.01946 6.04167 5.83333Z" fill="#4E6325"/>
<path fill-rule="evenodd" clip-rule="evenodd" d="M8.33333 13.125C7.61504 13.125 6.92616 13.4103 6.41825 13.9183C5.91034 14.4262 5.625 15.115 5.625 15.8333V16.875H14.375V15.8333C14.375 15.115 14.0897 14.4262 13.5817 13.9183C13.0738 13.4103 12.385 13.125 11.6667 13.125H8.33333ZM5.53437 13.0344C6.2767 12.292 7.28352 11.875 8.33333 11.875H11.6667C12.7165 11.875 13.7233 12.292 14.4656 13.0344C15.208 13.7767 15.625 14.7835 15.625 15.8333V17.5C15.625 17.8452 15.3452 18.125 15 18.125H5C4.65482 18.125 4.375 17.8452 4.375 17.5V15.8333C4.375 14.7835 4.79204 13.7767 5.53437 13.0344Z" fill="#4E6325"/>
</svg>
