<svg width="17" height="13" viewBox="0 0 17 13" fill="none" xmlns="http://www.w3.org/2000/svg">
<path opacity="0.6" d="M11.6667 10.8334V12.5H0V10.8334C0 10.8334 0 7.50003 5.83333 7.50003C11.6667 7.50003 11.6667 10.8334 11.6667 10.8334ZM8.75 2.9167C8.75 2.33984 8.57894 1.77593 8.25845 1.29628C7.93797 0.816641 7.48244 0.442804 6.94949 0.222049C6.41654 0.00129325 5.8301 -0.0564665 5.26432 0.0560737C4.69854 0.168614 4.17884 0.4464 3.77094 0.854303C3.36304 1.26221 3.08525 1.78191 2.97271 2.34768C2.86017 2.91346 2.91793 3.49991 3.13868 4.03286C3.35944 4.56581 3.73328 5.02133 4.21292 5.34182C4.69256 5.6623 5.25647 5.83336 5.83333 5.83336C6.60688 5.83336 7.34875 5.52607 7.89573 4.97909C8.44271 4.43211 8.75 3.69025 8.75 2.9167ZM11.6167 7.50003C12.129 7.89649 12.5481 8.40039 12.8447 8.97629C13.1413 9.55218 13.3081 10.1861 13.3333 10.8334V12.5H16.6667V10.8334C16.6667 10.8334 16.6667 7.80836 11.6167 7.50003ZM10.8333 3.06637e-05C10.2598 -0.00263695 9.69899 0.168807 9.225 0.491697C9.7312 1.19898 10.0034 2.04694 10.0034 2.9167C10.0034 3.78646 9.7312 4.63442 9.225 5.3417C9.69899 5.66459 10.2598 5.83603 10.8333 5.83336C11.6069 5.83336 12.3487 5.52607 12.8957 4.97909C13.4427 4.43211 13.75 3.69025 13.75 2.9167C13.75 2.14315 13.4427 1.40128 12.8957 0.854303C12.3487 0.307322 11.6069 3.06637e-05 10.8333 3.06637e-05Z" fill="#FE964A"/>
</svg>
